<svg width="52" height="53" viewBox="0 0 52 53" fill="none" xmlns="http://www.w3.org/2000/svg">
<path d="M26.1 52.1181C40.0788 52.1181 51.4109 40.6487 51.4109 26.5005C51.4109 12.3522 40.0788 0.882812 26.1 0.882812C12.1211 0.882812 0.789062 12.3522 0.789062 26.5005C0.789062 40.6487 12.1211 52.1181 26.1 52.1181Z" fill="white"/>
<path d="M16.3633 26.502L28.6021 31.4569C32.0677 32.8591 35.8332 30.2777 35.8332 26.502L23.5944 21.5472C20.1307 20.1449 16.3633 22.7264 16.3633 26.502Z" fill="#2A67B2"/>
<path d="M35.8332 26.4998L26.0982 30.4409L16.3633 26.4998L26.0982 22.5586L35.8332 26.4998Z" fill="white"/>
<path d="M33.3855 19.6075L16.3633 26.4991V21.2849C16.3633 19.6734 17.3329 18.2246 18.811 17.6259L35.8332 10.7344V15.9486C35.8332 17.5601 34.8636 19.0089 33.3855 19.6075Z" fill="#2A67B2"/>
<path d="M33.3855 35.3732L16.3633 42.2647V37.0505C16.3633 35.439 17.3329 33.9902 18.811 33.3915L35.8332 26.5V31.7142C35.8332 33.3257 34.8636 34.7745 33.3855 35.3732Z" fill="#2A67B2"/>
<path d="M35.8332 26.4998L26.0982 30.4409L16.3633 26.4998L26.0982 22.5586L35.8332 26.4998Z" fill="#204D82"/>
</svg>
