<svg width="191" height="67" viewBox="0 0 191 67" fill="none" xmlns="http://www.w3.org/2000/svg">
<path d="M33.1 59.1181C47.0788 59.1181 58.4109 47.6487 58.4109 33.5005C58.4109 19.3522 47.0788 7.88281 33.1 7.88281C19.1211 7.88281 7.78906 19.3522 7.78906 33.5005C7.78906 47.6487 19.1211 59.1181 33.1 59.1181Z" fill="white"/>
<path d="M23.3633 33.502L35.6021 38.4569C39.0677 39.8591 42.8332 37.2777 42.8332 33.502L30.5944 28.5472C27.1307 27.1449 23.3633 29.7264 23.3633 33.502Z" fill="#2A67B2"/>
<path d="M42.8332 33.4998L33.0982 37.4409L23.3633 33.4998L33.0982 29.5586L42.8332 33.4998Z" fill="white"/>
<path d="M40.3855 26.6075L23.3633 33.4991V28.2849C23.3633 26.6734 24.3329 25.2246 25.811 24.6259L42.8332 17.7344V22.9486C42.8332 24.5601 41.8636 26.0089 40.3855 26.6075Z" fill="#2A67B2"/>
<path d="M40.3855 42.3732L23.3633 49.2647V44.0505C23.3633 42.439 24.3329 40.9902 25.811 40.3915L42.8332 33.5V38.7142C42.8332 40.3257 41.8636 41.7745 40.3855 42.3732Z" fill="#2A67B2"/>
<path d="M42.8332 33.4998L33.0982 37.4409L23.3633 33.4998L33.0982 29.5586L42.8332 33.4998Z" fill="#204D82"/>
<path d="M93.2909 45.3235C92.2964 45.3235 91.4136 45.1347 90.643 44.7575C89.8724 44.3804 89.2688 43.8589 88.8323 43.1937C88.397 42.5292 88.1793 41.7654 88.1797 40.9023C88.1797 39.5359 88.6902 38.48 89.7108 37.7348C90.7314 36.9895 92.1562 36.6166 93.9848 36.6163C95.0619 36.6135 96.1347 36.7495 97.1779 37.0206V36.3195C97.1779 35.601 96.9517 35.0662 96.4992 34.7158C96.0467 34.3654 95.3766 34.1901 94.4887 34.1901C93.9381 34.1901 93.3213 34.2799 92.6379 34.4596C91.9545 34.6394 91.1516 34.9271 90.2283 35.3224L88.6836 32.1142C89.8374 31.5932 90.9514 31.2023 92.0254 30.9417C93.0849 30.6828 94.171 30.5516 95.2609 30.5508C97.2133 30.5508 98.7312 31.0225 99.8141 31.9661C100.897 32.9096 101.439 34.2354 101.439 35.9435V45.3235H97.1783V44.22C96.6316 44.605 96.0237 44.8923 95.3812 45.0689C94.7508 45.2388 94.0538 45.3235 93.2909 45.3235ZM92.2785 40.8215C92.2785 41.2712 92.4732 41.6219 92.8626 41.873C93.252 42.124 93.7936 42.2498 94.4872 42.2502C94.9755 42.2533 95.4626 42.1989 95.9385 42.0886C96.3757 41.9873 96.794 41.8139 97.1764 41.5762V39.7432C96.7648 39.6348 96.3469 39.5536 95.9248 39.5008C95.4922 39.4464 95.0565 39.4192 94.6203 39.4196C93.8746 39.4196 93.2979 39.541 92.8895 39.7838C92.481 40.0266 92.2777 40.3726 92.2789 40.8215H92.2785Z" fill="white"/>
<path d="M103.727 45.3245V31.0638H108.04V32.4929C108.477 31.9379 109.033 31.4906 109.665 31.1852C110.286 30.89 110.978 30.7422 111.742 30.7422C112.505 30.7603 113.046 30.877 113.366 31.0926V34.8934C113.062 34.7433 112.74 34.6345 112.407 34.5699C112.048 34.4981 111.683 34.4619 111.317 34.4623C110.662 34.4579 110.017 34.6203 109.44 34.9352C108.865 35.2473 108.383 35.7077 108.042 36.2697V45.3245H103.727Z" fill="white"/>
<path d="M119.999 45.3233L113.98 31.0625H118.667L122.155 39.7969L125.643 31.0625H130.223L124.206 45.3233H119.999Z" fill="white"/>
<path d="M135.47 45.3235C134.476 45.3235 133.594 45.1347 132.822 44.7575C132.051 44.3804 131.447 43.8589 131.012 43.1937C130.577 42.5292 130.359 41.7654 130.359 40.9023C130.359 39.5359 130.87 38.48 131.89 37.7348C132.911 36.9895 134.336 36.6166 136.164 36.6163C137.242 36.6135 138.316 36.7491 139.36 37.0206V36.3195C139.36 35.601 139.133 35.0662 138.68 34.7158C138.228 34.3654 137.557 34.1901 136.67 34.1901C136.12 34.1901 135.503 34.2799 134.82 34.4596C134.136 34.6394 133.333 34.9271 132.41 35.3224L130.865 32.1142C132.019 31.5932 133.133 31.2023 134.207 30.9417C135.267 30.6828 136.353 30.5516 137.443 30.5508C139.395 30.5508 140.913 31.0225 141.996 31.9661C143.079 32.9096 143.62 34.2354 143.618 35.9435V45.3235H139.358V44.22C138.811 44.605 138.203 44.8923 137.561 45.0689C136.93 45.2388 136.233 45.3235 135.47 45.3235ZM134.458 40.8215C134.458 41.2712 134.652 41.6219 135.042 41.873C135.431 42.124 135.973 42.2498 136.666 42.2502C137.154 42.2533 137.642 42.1989 138.117 42.0886C138.555 41.9873 138.973 41.8143 139.356 41.5762V39.7432C138.944 39.6348 138.526 39.554 138.104 39.5008C137.671 39.4464 137.235 39.4192 136.799 39.4196C136.054 39.4196 135.477 39.541 135.069 39.7838C134.66 40.0266 134.457 40.3726 134.459 40.8215H134.458Z" fill="white"/>
<path d="M156.185 22.2002V31.6299C155.649 31.3233 155.076 31.0876 154.48 30.9288C154.402 30.9075 154.321 30.8894 154.241 30.8693C153.699 30.7463 153.146 30.6848 152.59 30.6864C151.223 30.6864 149.984 31.01 148.875 31.6567C148.474 31.8896 148.095 32.1604 147.743 32.4647C147.147 32.9841 146.639 33.5989 146.239 34.2851C145.59 35.3902 145.266 36.6257 145.266 37.9918C145.266 39.3578 145.585 40.5925 146.224 41.6965C146.85 42.7882 147.745 43.6978 148.82 44.3371C149.912 44.994 151.124 45.3223 152.455 45.3223C153.857 45.3223 155.117 44.9089 156.237 44.0821V45.3243H160.497V20.4531L156.185 22.2002ZM156.185 40.4719C155.803 40.8436 155.349 41.1325 154.853 41.3209C154.356 41.5097 153.806 41.6038 153.202 41.6042C152.51 41.6042 151.884 41.4466 151.325 41.1313C150.776 40.8266 150.317 40.3801 149.994 39.837C149.665 39.2912 149.501 38.6767 149.501 37.9937C149.502 37.3107 149.665 36.6951 149.994 36.1473C150.317 35.6042 150.776 35.1577 151.325 34.853C151.884 34.5377 152.51 34.3801 153.202 34.3801C153.765 34.3761 154.324 34.4719 154.853 34.6634C155.349 34.8404 155.803 35.1202 156.185 35.4856V40.4719Z" fill="white"/>
<path d="M175.893 33.542C175.43 32.6955 174.743 31.9955 173.909 31.5202C173.066 31.0351 172.094 30.7927 170.994 30.7923C169.538 30.7923 168.277 31.2057 167.212 32.0326V17.7344L162.898 19.4811V45.3226H167.21V35.6719C167.505 35.3175 167.873 35.0322 168.289 34.8359C168.705 34.6385 169.189 34.54 169.74 34.5396C170.521 34.5396 171.142 34.7733 171.604 35.2403C172.066 35.7073 172.297 36.3363 172.296 37.1273V45.3226H176.61V36.5338C176.61 35.4023 176.371 34.4048 175.893 33.542Z" fill="white"/>
<path d="M181.055 29.4948C180.458 29.4948 179.949 29.2848 179.528 28.8642C178.697 28.0358 178.687 26.6824 179.505 25.8413C179.513 25.8335 179.521 25.826 179.528 25.8181C179.949 25.3991 180.458 25.1887 181.055 25.1875C181.653 25.1863 182.162 25.3964 182.582 25.8181C183.413 26.6465 183.423 27.9999 182.605 28.841C182.598 28.8489 182.59 28.8563 182.582 28.8642C182.162 29.2848 181.653 29.4952 181.055 29.4948Z" fill="white"/>
<path d="M183.212 31.0625H178.898V45.3233H183.212V31.0625Z" fill="white"/>
<path d="M78.5476 45.3198C77.0309 45.3198 75.5321 45.0029 74.0512 44.3695C72.582 43.7445 71.2393 42.851 70.0898 41.7341L72.6599 37.9033C73.802 38.9658 74.8549 39.7268 75.8183 40.1864C76.7801 40.6455 77.8311 40.8812 78.8945 40.8761C79.6083 40.8761 80.215 40.7945 80.7146 40.6309C81.2142 40.4674 81.5981 40.2274 81.8656 39.9105C82.1308 39.6003 82.2737 39.2023 82.2671 38.792C82.2671 38.1996 82.0709 37.7401 81.6783 37.4126C81.2858 37.0851 80.6168 36.8297 79.671 36.6464L75.5492 35.8188C74.0321 35.5125 72.8639 34.8485 72.0446 33.8269C71.2253 32.8053 70.8149 31.5079 70.8133 29.935C70.8133 28.5457 71.121 27.3504 71.7366 26.3485C72.3523 25.3467 73.2346 24.5805 74.3845 24.05C75.536 23.5191 76.9059 23.2539 78.4938 23.2539C79.8859 23.2539 81.287 23.5247 82.6962 24.0662C84.1055 24.6077 85.3278 25.3585 86.3628 26.3186L83.9271 30.2109C82.0004 28.5158 80.0822 27.668 78.173 27.668C77.548 27.668 77.0083 27.7445 76.5535 27.8978C76.0987 28.0511 75.7509 28.2655 75.5099 28.5414C75.2696 28.8153 75.1403 29.1712 75.1485 29.5373C75.1485 30.0686 75.3226 30.4773 75.6703 30.763C76.018 31.0488 76.5854 31.2734 77.3716 31.437L81.2523 32.1724C83.0545 32.4995 84.424 33.1841 85.3609 34.2257C86.2978 35.2674 86.7654 36.6157 86.7643 38.2698C86.7643 39.7205 86.4341 40.9722 85.774 42.0241C85.114 43.076 84.1682 43.8883 82.9369 44.4602C81.7056 45.0328 80.2426 45.3194 78.5476 45.3198Z" fill="white"/>
</svg>
